# Blender 5.1.0
# www.blender.org
mtllib fent_reactor.mtl
usemtl FentReactor
o Cube_Cube.001
v 0.000000 0.000000 1.000000
v 0.000000 1.000000 1.000000
v 0.000000 -0.000000 0.000000
v 0.000000 1.000000 0.000000
v 1.000000 0.000000 1.000000
v 1.000000 1.000000 1.000000
v 1.000000 -0.000000 0.000000
v 1.000000 1.000000 0.000000
v 1.000000 0.125000 0.875000
v 1.000000 0.875000 0.875000
v 1.000000 0.125000 0.125000
v 1.000000 0.875000 0.125000
v 0.125000 0.000000 0.875000
v 0.125000 -0.000000 0.125000
v 0.875000 0.000000 0.875000
v 0.875000 -0.000000 0.125000
v 0.000000 0.125000 0.875000
v 0.000000 0.875000 0.875000
v 0.000000 0.125000 0.125000
v 0.000000 0.875000 0.125000
v 0.125000 0.125000 1.000000
v 0.125000 0.875000 1.000000
v 0.875000 0.125000 1.000000
v 0.875000 0.875000 1.000000
v 0.125000 0.125000 0.000000
v 0.125000 0.875000 0.000000
v 0.875000 0.125000 0.000000
v 0.875000 0.875000 0.000000
v 0.125000 1.000000 0.875000
v 0.125000 1.000000 0.125000
v 0.875000 1.000000 0.875000
v 0.875000 1.000000 0.125000
v 0.125000 0.125000 0.875000
v 0.125000 0.875000 0.875000
v 0.125000 0.125000 0.125000
v 0.125000 0.875000 0.125000
v 0.875000 0.125000 0.875000
v 0.875000 0.875000 0.875000
v 0.875000 0.125000 0.125000
v 0.875000 0.875000 0.125000
v 0.187500 0.187500 0.062500
v 0.187500 0.812500 0.062500
v 0.812500 0.187500 0.062500
v 0.812500 0.812500 0.062500
v 0.125000 0.125000 0.125000
v 0.125000 0.875000 0.125000
v 0.875000 0.125000 0.125000
v 0.875000 0.875000 0.125000
v 0.312500 0.312500 0.062500
v 0.312500 0.687500 0.062500
v 0.687500 0.312500 0.062500
v 0.687500 0.687500 0.062500
v 0.312500 0.687500 0.000000
v 0.312500 0.312500 0.000000
v 0.687500 0.312500 0.000000
v 0.687500 0.687500 0.000000
v 0.062500 0.187500 0.812500
v 0.062500 0.812500 0.812500
v 0.062500 0.187500 0.187500
v 0.062500 0.812500 0.187500
v 0.125000 0.125000 0.875000
v 0.125000 0.875000 0.875000
v 0.125000 0.125000 0.125000
v 0.125000 0.875000 0.125000
v 0.062500 0.312500 0.687500
v 0.062500 0.687500 0.687500
v 0.062500 0.312500 0.312500
v 0.062500 0.687500 0.312500
v 0.000000 0.687500 0.687500
v 0.000000 0.312500 0.687500
v 0.000000 0.312500 0.312500
v 0.000000 0.687500 0.312500
v 0.812500 0.187500 0.937500
v 0.812500 0.812500 0.937500
v 0.187500 0.187500 0.937500
v 0.187500 0.812500 0.937500
v 0.875000 0.125000 0.875000
v 0.875000 0.875000 0.875000
v 0.125000 0.125000 0.875000
v 0.125000 0.875000 0.875000
v 0.687500 0.312500 0.937500
v 0.687500 0.687500 0.937500
v 0.312500 0.312500 0.937500
v 0.312500 0.687500 0.937500
v 0.687500 0.687500 1.000000
v 0.687500 0.312500 1.000000
v 0.312500 0.312500 1.000000
v 0.312500 0.687500 1.000000
v 0.937500 0.187500 0.187500
v 0.937500 0.812500 0.187500
v 0.937500 0.187500 0.812500
v 0.937500 0.812500 0.812500
v 0.875000 0.125000 0.125000
v 0.875000 0.875000 0.125000
v 0.875000 0.125000 0.875000
v 0.875000 0.875000 0.875000
v 0.937500 0.312500 0.312500
v 0.937500 0.687500 0.312500
v 0.937500 0.312500 0.687500
v 0.937500 0.687500 0.687500
v 1.000000 0.687500 0.312500
v 1.000000 0.312500 0.312500
v 1.000000 0.312500 0.687500
v 1.000000 0.687500 0.687500
v 0.875000 0.937500 0.875000
v 0.875000 0.937500 0.125000
v 0.125000 0.937500 0.125000
v 0.125000 0.937500 0.875000
v 0.875000 0.062500 0.875000
v 0.875000 0.062500 0.125000
v 0.125000 0.062500 0.875000
v 0.125000 0.062500 0.125000
v 0.500000 1.635589 0.125000
v 0.356494 1.635589 0.153545
v 0.234835 1.635589 0.234835
v 0.153545 1.635589 0.356494
v 0.125000 1.635589 0.500000
v 0.153545 1.635589 0.643506
v 0.234835 1.635589 0.765165
v 0.356494 1.635589 0.846455
v 0.500000 1.635589 0.875000
v 0.643506 1.635589 0.846455
v 0.765165 1.635589 0.765165
v 0.846455 1.635589 0.643506
v 0.875000 1.635589 0.500000
v 0.846455 1.635589 0.356494
v 0.765165 1.635589 0.234835
v 0.643506 1.635589 0.153545
v 0.500000 1.635589 0.187500
v 0.380411 1.635589 0.211288
v 0.279029 1.635589 0.279029
v 0.211288 1.635589 0.380411
v 0.187500 1.635589 0.500000
v 0.211288 1.635589 0.619589
v 0.279029 1.635589 0.720971
v 0.380411 1.635589 0.788712
v 0.500000 1.635589 0.812500
v 0.619588 1.635589 0.788712
v 0.720971 1.635589 0.720971
v 0.788712 1.635589 0.619589
v 0.812500 1.635589 0.500000
v 0.788712 1.635589 0.380411
v 0.720971 1.635589 0.279029
v 0.619588 1.635589 0.211288
v 0.500000 1.130641 0.187500
v 0.380411 1.130641 0.211288
v 0.279029 1.130641 0.279029
v 0.211288 1.130641 0.380411
v 0.187500 1.130641 0.500000
v 0.211288 1.130641 0.619589
v 0.279029 1.130641 0.720971
v 0.380411 1.130641 0.788712
v 0.500000 1.130641 0.812500
v 0.619588 1.130641 0.788712
v 0.720971 1.130641 0.720971
v 0.788712 1.130641 0.619589
v 0.812500 1.130641 0.500000
v 0.788712 1.130641 0.380411
v 0.720971 1.130641 0.279029
v 0.619588 1.130641 0.211288
v 0.375000 1.130641 0.625000
v 0.625000 1.130641 0.625000
v 0.375000 1.130641 0.375000
v 0.625000 1.130641 0.375000
v 0.375000 1.193141 0.375000
v 0.375000 1.193141 0.625000
v 0.625000 1.193141 0.625000
v 0.625000 1.193141 0.375000
v 0.531250 1.193141 0.375000
v 0.468750 1.193141 0.375000
v 0.437500 1.193141 0.375000
v 0.375000 1.193141 0.375000
v 0.625000 1.193141 0.375000
v 0.562500 1.193141 0.375000
v 0.531250 1.000000 0.062500
v 0.468750 1.000000 0.062500
v 0.437500 1.000000 0.062500
v 0.375000 1.000000 0.062500
v 0.625000 1.000000 0.062500
v 0.562500 1.000000 0.062500
v 0.500000 0.937500 0.125000
v 0.356494 0.937500 0.153545
v 0.234835 0.937500 0.234835
v 0.153545 0.937500 0.356494
v 0.125000 0.937500 0.500000
v 0.153545 0.937500 0.643506
v 0.234835 0.937500 0.765165
v 0.356494 0.937500 0.846455
v 0.500000 0.937500 0.875000
v 0.643506 0.937500 0.846455
v 0.765165 0.937500 0.765165
v 0.846455 0.937500 0.643506
v 0.875000 0.937500 0.500000
v 0.846455 0.937500 0.356494
v 0.765165 0.937500 0.234835
v 0.643506 0.937500 0.153545
v 0.500000 1.635589 0.125000
v 0.356494 1.635589 0.153545
v 0.234835 1.635589 0.234835
v 0.153545 1.635589 0.356494
v 0.125000 1.635589 0.500000
v 0.153545 1.635589 0.643506
v 0.234835 1.635589 0.765165
v 0.356494 1.635589 0.846455
v 0.500000 1.635589 0.875000
v 0.643506 1.635589 0.846455
v 0.765165 1.635589 0.765165
v 0.846455 1.635589 0.643506
v 0.875000 1.635589 0.500000
v 0.846455 1.635589 0.356494
v 0.765165 1.635589 0.234835
v 0.643506 1.635589 0.153545
v 0.500000 1.635589 0.187500
v 0.380411 1.635589 0.211288
v 0.279029 1.635589 0.279029
v 0.211288 1.635589 0.380411
v 0.187500 1.635589 0.500000
v 0.211288 1.635589 0.619589
v 0.279029 1.635589 0.720971
v 0.380411 1.635589 0.788712
v 0.500000 1.635589 0.812500
v 0.619588 1.635589 0.788712
v 0.720971 1.635589 0.720971
v 0.788712 1.635589 0.619589
v 0.812500 1.635589 0.500000
v 0.788712 1.635589 0.380411
v 0.720971 1.635589 0.279029
v 0.619588 1.635589 0.211288
v 0.500000 1.130641 0.187500
v 0.380411 1.130641 0.211288
v 0.279029 1.130641 0.279029
v 0.211288 1.130641 0.380411
v 0.187500 1.130641 0.500000
v 0.211288 1.130641 0.619589
v 0.279029 1.130641 0.720971
v 0.380411 1.130641 0.788712
v 0.500000 1.130641 0.812500
v 0.619588 1.130641 0.788712
v 0.720971 1.130641 0.720971
v 0.788712 1.130641 0.619589
v 0.812500 1.130641 0.500000
v 0.788712 1.130641 0.380411
v 0.720971 1.130641 0.279029
v 0.619588 1.130641 0.211288
vn -0.0000 -1.0000 -0.0000
vn 1.0000 -0.0000 -0.0000
vn -1.0000 -0.0000 -0.0000
vn -0.0000 -0.0000 1.0000
vn -0.0000 -0.0000 -1.0000
vn -0.0000 1.0000 -0.0000
vn -0.7071 -0.0000 -0.7071
vn -0.0000 0.7071 -0.7071
vn 0.7071 -0.0000 -0.7071
vn -0.0000 -0.7071 -0.7071
vn -0.7071 -0.0000 0.7071
vn -0.7071 0.7071 -0.0000
vn -0.7071 -0.7071 -0.0000
vn 0.7071 -0.0000 0.7071
vn -0.0000 0.7071 0.7071
vn -0.0000 -0.7071 0.7071
vn 0.7071 0.7071 -0.0000
vn 0.7071 -0.7071 -0.0000
vn 0.3827 -0.0000 0.9239
vn -0.3827 -0.0000 -0.9239
vn -0.9239 -0.0000 -0.3827
vn 0.9239 -0.0000 0.3827
vn -0.9239 -0.0000 0.3827
vn 0.9239 -0.0000 -0.3827
vn -0.3827 -0.0000 0.9239
vn 0.3827 -0.0000 -0.9239
vt 0.036364 0.066667
vt 0.054545 0.253333
vt 0.036364 0.280000
vt 0.063636 0.266667
vt 0.190909 0.293333
vt 0.045455 0.293333
vt 0.272727 0.280000
vt 0.254545 0.093333
vt 0.272727 0.066667
vt 0.063636 0.026667
vt 0.190909 0.053333
vt 0.045455 0.053333
vt 0.172727 0.320000
vt 0.290909 0.093333
vt 0.200000 0.280000
vt 0.181818 0.093333
vt 0.200000 0.066667
vt 0.063636 0.080000
vt 0.254545 0.253333
vt 0.172727 0.026667
vt 0.018182 0.093333
vt 0.018182 0.253333
vt 0.218182 0.093333
vt 0.290909 0.253333
vt 0.218182 0.253333
vt 0.181818 0.253333
vt 0.172727 0.080000
vt 0.054545 0.093333
vt 0.309091 0.093333
vt 0.236364 0.093333
vt 0.172727 0.093333
vt 0.063636 0.093333
vt 0.172727 0.253333
vt 0.063636 0.253333
vt 0.172727 0.346667
vt 0.063636 0.320000
vt 0.063636 -0.000000
vt 0.236364 0.253333
vt 0.000000 0.253333
vt 0.309091 0.253333
vt 1.000000 0.853333
vt 0.418182 0.000000
vt 1.000000 0.000000
vt 0.172727 0.266667
vt 0.409091 0.146667
vt 0.318182 0.013333
vt 0.409091 0.013333
vt 0.309091 0.160000
vt 0.318182 0.146667
vt 0.309091 0.000000
vt 0.372727 0.253333
vt 0.318182 0.173333
vt 0.372727 0.173333
vt 0.381818 0.253333
vt 0.381818 0.173333
vt 0.309091 0.173333
vt 0.318182 0.253333
vt 0.372727 0.160000
vt 0.318182 0.160000
vt 0.318182 0.266667
vt 0.372727 0.266667
vt 0.272727 0.933333
vt 0.290909 0.946667
vt 0.272727 0.946667
vt 0.018182 0.933333
vt 0.000000 0.946667
vt 0.000000 0.933333
vt 0.036364 0.933333
vt 0.018182 0.946667
vt 0.054545 0.933333
vt 0.036364 0.946667
vt 0.072727 0.933333
vt 0.054545 0.946667
vt 0.090909 0.946667
vt 0.072727 0.946667
vt 0.090909 0.933333
vt 0.109091 0.946667
vt 0.109091 0.933333
vt 0.127273 0.946667
vt 0.127273 0.933333
vt 0.145455 0.946667
vt 0.145455 0.933333
vt 0.163636 0.946667
vt 0.163636 0.933333
vt 0.181818 0.946667
vt 0.181818 0.933333
vt 0.200000 0.946667
vt 0.200000 0.933333
vt 0.218182 0.946667
vt 0.236364 0.933333
vt 0.218182 0.933333
vt 0.254545 0.933333
vt 0.236364 0.946667
vt 0.254545 0.946667
vt 0.336364 0.267132
vt 0.368281 0.286522
vt 0.381501 0.333333
vt 0.300000 0.413333
vt 0.336364 0.466667
vt 0.300000 0.466667
vt 0.345455 0.466667
vt 0.336364 0.413333
vt 0.345455 0.413333
vt 0.290909 0.413333
vt 0.290909 0.466667
vt 0.336364 0.400000
vt 0.300000 0.400000
vt 0.300000 0.480000
vt 0.336364 0.480000
vt 0.063636 0.346667
vt 0.172727 -0.000000
vt 0.000000 0.093333
vt 0.418182 0.853333
vt 0.418182 0.160000
vt 0.290909 0.933333
vt 0.378065 0.358668
vt 0.336364 0.399535
vt 0.368281 0.380145
vt 0.353637 0.394496
vt 0.319090 0.394496
vt 0.304447 0.380145
vt 0.294662 0.358668
vt 0.291226 0.333333
vt 0.294662 0.307999
vt 0.304447 0.286522
vt 0.319090 0.272171
vt 0.353637 0.272171
vt 0.378065 0.307999
vt 0.163636 0.346667
vt 0.145455 0.346667
vt 0.036364 0.346667
vt 0.018182 0.346667
vt 0.181818 0.346667
vt 0.054545 0.346667
vt 0.200000 0.346667
vt 0.072727 0.346667
vt 0.218182 0.346667
vt 0.090909 0.346667
vt 0.236364 0.346667
vt 0.109091 0.346667
vt 0.254545 0.346667
vt 0.127273 0.346667
vt 0.272727 0.346667
vt 0.000000 0.346667
vt 0.290909 0.346667
vt 0.218182 1.000000
vt 0.090909 1.000000
vt 0.236364 1.000000
vt 0.109091 1.000000
vt 0.254545 1.000000
vt 0.127273 1.000000
vt 0.000000 1.000000
vt 0.272727 1.000000
vt 0.145455 1.000000
vt 0.018182 1.000000
vt 0.163636 1.000000
vt 0.036364 1.000000
vt 0.181818 1.000000
vt 0.054545 1.000000
vt 0.200000 1.000000
vt 0.072727 1.000000
vt 0.290909 1.000000
s 1
f 1/1/1 15/2/1 5/3/1
f 15/4/1 7/5/1 5/6/1
f 8/7/2 11/8/2 7/9/2
f 10/10/2 8/11/2 6/12/2
f 11/13/2 5/6/2 7/5/2
f 9/14/2 6/7/2 5/9/2
f 7/15/1 14/16/1 3/17/1
f 3/11/1 13/18/1 1/12/1
f 19/14/3 4/7/3 3/9/3
f 18/19/3 1/9/3 2/7/3
f 20/13/3 2/6/3 4/5/3
f 1/12/3 19/20/3 3/11/3
f 24/19/4 5/9/4 6/7/4
f 21/14/4 2/7/4 1/9/4
f 5/3/4 21/21/4 1/1/4
f 22/22/4 6/1/4 2/3/4
f 28/23/5 4/15/5 8/17/5
f 26/19/5 3/9/5 4/7/5
f 7/9/5 28/24/5 8/7/5
f 3/17/5 27/25/5 7/15/5
f 30/26/6 8/17/6 4/15/6
f 32/27/6 6/12/6 8/11/6
f 29/4/6 4/5/6 2/6/6
f 31/28/6 2/3/6 6/1/6
f 39/29/3 28/24/3 27/14/3
f 35/30/6 27/25/6 25/23/6
f 26/19/2 35/30/2 25/8/2
f 40/30/1 26/25/1 28/23/1
f 30/26/4 106/31/4 32/16/4
f 105/32/6 107/33/6 108/34/6
f 31/28/5 108/34/5 29/2/5
f 16/26/4 112/31/4 14/16/4
f 13/28/5 109/34/5 15/2/5
f 14/27/2 111/32/2 13/18/2
f 35/29/4 20/24/4 19/14/4
f 36/35/1 18/36/1 20/13/1
f 33/37/6 19/20/6 17/10/6
f 34/38/5 17/8/5 18/19/5
f 37/39/6 21/21/6 23/22/6
f 21/14/2 34/40/2 22/24/2
f 110/41/1 111/42/1 112/43/1
f 34/39/1 24/21/1 22/22/1
f 15/4/3 110/33/3 16/44/3
f 24/19/3 37/30/3 23/8/3
f 39/35/6 9/36/6 11/13/6
f 12/19/4 39/30/4 11/8/4
f 38/37/1 12/20/1 10/10/1
f 37/29/5 10/24/5 9/14/5
f 42/45/5 43/46/5 41/47/5
f 45/42/7 42/45/7 41/47/7
f 42/45/8 48/48/8 44/49/8
f 44/49/9 47/50/9 43/46/9
f 43/46/10 45/42/10 41/47/10
f 53/51/5 55/52/5 54/53/5
f 50/54/3 54/53/3 49/55/3
f 51/56/2 56/57/2 52/40/2
f 49/58/1 55/52/1 51/59/1
f 52/60/6 53/51/6 50/61/6
f 58/45/3 59/46/3 57/47/3
f 61/42/11 58/45/11 57/47/11
f 58/45/12 64/48/12 60/49/12
f 60/49/7 63/50/7 59/46/7
f 59/46/13 61/42/13 57/47/13
f 69/51/3 71/52/3 70/53/3
f 66/54/4 70/53/4 65/55/4
f 67/56/5 72/57/5 68/40/5
f 65/58/1 71/52/1 67/59/1
f 68/60/6 69/51/6 66/61/6
f 74/45/4 75/46/4 73/47/4
f 77/42/14 74/45/14 73/47/14
f 74/45/15 80/48/15 76/49/15
f 76/49/11 79/50/11 75/46/11
f 75/46/16 77/42/16 73/47/16
f 85/51/4 87/52/4 86/53/4
f 82/54/2 86/53/2 81/55/2
f 83/56/3 88/57/3 84/40/3
f 81/58/1 87/52/1 83/59/1
f 84/60/6 85/51/6 82/61/6
f 90/45/2 91/46/2 89/47/2
f 93/42/9 90/45/9 89/47/9
f 90/45/17 96/48/17 92/49/17
f 92/49/14 95/50/14 91/46/14
f 91/46/18 93/42/18 89/47/18
f 101/51/2 103/52/2 102/53/2
f 98/54/5 102/53/5 97/55/5
f 99/56/4 104/57/4 100/40/4
f 97/58/1 103/52/1 99/59/1
f 100/60/6 101/51/6 98/61/6
f 29/4/2 107/33/2 30/44/2
f 32/27/3 105/32/3 31/18/3
f 128/62/6 129/63/6 144/64/6
f 114/65/6 129/66/6 113/67/6
f 115/68/6 130/69/6 114/65/6
f 116/70/6 131/71/6 115/68/6
f 117/72/6 132/73/6 116/70/6
f 117/72/6 134/74/6 133/75/6
f 118/76/6 135/77/6 134/74/6
f 119/78/6 136/79/6 135/77/6
f 120/80/6 137/81/6 136/79/6
f 121/82/6 138/83/6 137/81/6
f 122/84/6 139/85/6 138/83/6
f 123/86/6 140/87/6 139/85/6
f 124/88/6 141/89/6 140/87/6
f 126/90/6 141/89/6 125/91/6
f 127/92/6 142/93/6 126/90/6
f 128/62/6 143/94/6 127/92/6
f 157/95/6 159/96/6 145/97/6
f 167/98/6 165/99/6 166/100/6
f 163/101/5 168/102/5 164/103/5
f 162/104/4 166/100/4 161/105/4
f 164/106/2 167/98/2 162/107/2
f 161/108/3 165/99/3 163/109/3
f 1/1/1 13/28/1 15/2/1
f 15/4/1 16/44/1 7/5/1
f 8/7/2 12/19/2 11/8/2
f 10/10/2 12/20/2 8/11/2
f 11/13/2 9/36/2 5/6/2
f 9/14/2 10/24/2 6/7/2
f 7/15/1 16/26/1 14/16/1
f 3/11/1 14/27/1 13/18/1
f 19/14/3 20/24/3 4/7/3
f 18/19/3 17/8/3 1/9/3
f 20/13/3 18/36/3 2/6/3
f 1/12/3 17/10/3 19/20/3
f 24/19/4 23/8/4 5/9/4
f 21/14/4 22/24/4 2/7/4
f 5/3/4 23/22/4 21/21/4
f 22/22/4 24/21/4 6/1/4
f 28/23/5 26/25/5 4/15/5
f 26/19/5 25/8/5 3/9/5
f 7/9/5 27/14/5 28/24/5
f 3/17/5 25/23/5 27/25/5
f 30/26/6 32/16/6 8/17/6
f 32/27/6 31/18/6 6/12/6
f 29/4/6 30/44/6 4/5/6
f 31/28/6 29/2/6 2/3/6
f 39/29/3 40/40/3 28/24/3
f 35/30/6 39/38/6 27/25/6
f 26/19/2 36/38/2 35/30/2
f 40/30/1 36/38/1 26/25/1
f 30/26/4 107/33/4 106/31/4
f 105/32/6 106/31/6 107/33/6
f 31/28/5 105/32/5 108/34/5
f 16/26/4 110/33/4 112/31/4
f 13/28/5 111/32/5 109/34/5
f 14/27/2 112/31/2 111/32/2
f 35/29/4 36/40/4 20/24/4
f 36/35/1 34/110/1 18/36/1
f 33/37/6 35/111/6 19/20/6
f 34/38/5 33/30/5 17/8/5
f 37/39/6 33/112/6 21/21/6
f 21/14/2 33/29/2 34/40/2
f 110/41/1 109/113/1 111/42/1
f 34/39/1 38/112/1 24/21/1
f 15/4/3 109/34/3 110/33/3
f 24/19/3 38/38/3 37/30/3
f 39/35/6 37/110/6 9/36/6
f 12/19/4 40/38/4 39/30/4
f 38/37/1 40/111/1 12/20/1
f 37/29/5 38/40/5 10/24/5
f 42/45/5 44/49/5 43/46/5
f 45/42/7 46/114/7 42/45/7
f 42/45/8 46/114/8 48/48/8
f 44/49/9 48/48/9 47/50/9
f 43/46/10 47/50/10 45/42/10
f 53/51/5 56/57/5 55/52/5
f 50/54/3 53/51/3 54/53/3
f 51/56/2 55/52/2 56/57/2
f 49/58/1 54/53/1 55/52/1
f 52/60/6 56/57/6 53/51/6
f 58/45/3 60/49/3 59/46/3
f 61/42/11 62/114/11 58/45/11
f 58/45/12 62/114/12 64/48/12
f 60/49/7 64/48/7 63/50/7
f 59/46/13 63/50/13 61/42/13
f 69/51/3 72/57/3 71/52/3
f 66/54/4 69/51/4 70/53/4
f 67/56/5 71/52/5 72/57/5
f 65/58/1 70/53/1 71/52/1
f 68/60/6 72/57/6 69/51/6
f 74/45/4 76/49/4 75/46/4
f 77/42/14 78/114/14 74/45/14
f 74/45/15 78/114/15 80/48/15
f 76/49/11 80/48/11 79/50/11
f 75/46/16 79/50/16 77/42/16
f 85/51/4 88/57/4 87/52/4
f 82/54/2 85/51/2 86/53/2
f 83/56/3 87/52/3 88/57/3
f 81/58/1 86/53/1 87/52/1
f 84/60/6 88/57/6 85/51/6
f 90/45/2 92/49/2 91/46/2
f 93/42/9 94/114/9 90/45/9
f 90/45/17 94/114/17 96/48/17
f 92/49/14 96/48/14 95/50/14
f 91/46/18 95/50/18 93/42/18
f 101/51/2 104/57/2 103/52/2
f 98/54/5 101/51/5 102/53/5
f 99/56/4 103/52/4 104/57/4
f 97/58/1 102/53/1 103/52/1
f 100/60/6 104/57/6 101/51/6
f 29/4/2 108/34/2 107/33/2
f 32/27/3 106/31/3 105/32/3
f 128/62/6 113/115/6 129/63/6
f 114/65/6 130/69/6 129/66/6
f 115/68/6 131/71/6 130/69/6
f 116/70/6 132/73/6 131/71/6
f 117/72/6 133/75/6 132/73/6
f 117/72/6 118/76/6 134/74/6
f 118/76/6 119/78/6 135/77/6
f 119/78/6 120/80/6 136/79/6
f 120/80/6 121/82/6 137/81/6
f 121/82/6 122/84/6 138/83/6
f 122/84/6 123/86/6 139/85/6
f 123/86/6 124/88/6 140/87/6
f 124/88/6 125/91/6 141/89/6
f 126/90/6 142/93/6 141/89/6
f 127/92/6 143/94/6 142/93/6
f 128/62/6 144/64/6 143/94/6
f 145/97/6 146/116/6 149/117/6
f 146/116/6 147/118/6 149/117/6
f 147/118/6 148/119/6 149/117/6
f 149/117/6 150/120/6 151/121/6
f 151/121/6 152/122/6 153/123/6
f 153/123/6 154/124/6 155/125/6
f 155/125/6 156/126/6 157/95/6
f 157/95/6 158/127/6 159/96/6
f 159/96/6 160/128/6 145/97/6
f 149/117/6 151/121/6 145/97/6
f 151/121/6 153/123/6 145/97/6
f 153/123/6 155/125/6 145/97/6
f 155/125/6 157/95/6 145/97/6
f 167/98/6 168/102/6 165/99/6
f 163/101/5 165/99/5 168/102/5
f 162/104/4 167/98/4 166/100/4
f 164/106/2 168/102/2 167/98/2
f 161/108/3 166/100/3 165/99/3
f 190/129/19 205/82/4 189/130/4
f 183/131/7 198/65/20 182/132/20
f 191/133/14 206/84/19 190/129/19
f 184/134/21 199/68/7 183/131/7
f 192/135/22 207/86/14 191/133/14
f 185/136/3 200/70/21 184/134/21
f 193/137/2 208/88/22 192/135/22
f 186/138/23 201/72/3 185/136/3
f 194/139/24 209/91/2 193/137/2
f 187/140/11 202/76/23 186/138/23
f 195/141/9 210/90/24 194/139/24
f 188/142/25 203/78/11 187/140/11
f 196/143/26 211/92/9 195/141/9
f 189/130/4 204/80/25 188/142/25
f 182/132/20 197/67/5 181/144/5
f 181/145/5 212/62/26 196/143/26
f 226/93/23 241/146/3 225/89/3
f 219/77/9 234/147/24 218/74/24
f 227/94/11 242/148/23 226/93/23
f 220/79/26 235/149/9 219/77/9
f 228/64/25 243/150/11 227/94/11
f 221/81/5 236/151/26 220/79/26
f 214/69/19 229/152/4 213/66/4
f 213/63/4 244/153/25 228/64/25
f 222/83/20 237/154/5 221/81/5
f 215/71/14 230/155/19 214/69/19
f 223/85/7 238/156/20 222/83/20
f 216/73/22 231/157/14 215/71/14
f 224/87/21 239/158/7 223/85/7
f 217/75/2 232/159/22 216/73/22
f 225/89/3 240/160/21 224/87/21
f 218/74/24 233/161/2 217/75/2
f 190/129/19 206/84/19 205/82/4
f 183/131/7 199/68/7 198/65/20
f 191/133/14 207/86/14 206/84/19
f 184/134/21 200/70/21 199/68/7
f 192/135/22 208/88/22 207/86/14
f 185/136/3 201/72/3 200/70/21
f 193/137/2 209/91/2 208/88/22
f 186/138/23 202/76/23 201/72/3
f 194/139/24 210/90/24 209/91/2
f 187/140/11 203/78/11 202/76/23
f 195/141/9 211/92/9 210/90/24
f 188/142/25 204/80/25 203/78/11
f 196/143/26 212/62/26 211/92/9
f 189/130/4 205/82/4 204/80/25
f 182/132/20 198/65/20 197/67/5
f 181/145/5 197/115/5 212/62/26
f 226/93/23 242/148/23 241/146/3
f 219/77/9 235/149/9 234/147/24
f 227/94/11 243/150/11 242/148/23
f 220/79/26 236/151/26 235/149/9
f 228/64/25 244/153/25 243/150/11
f 221/81/5 237/154/5 236/151/26
f 214/69/19 230/155/19 229/152/4
f 213/63/4 229/162/4 244/153/25
f 222/83/20 238/156/20 237/154/5
f 215/71/14 231/157/14 230/155/19
f 223/85/7 239/158/7 238/156/20
f 216/73/22 232/159/22 231/157/14
f 224/87/21 240/160/21 239/158/7
f 217/75/2 233/161/2 232/159/22
f 225/89/3 241/146/3 240/160/21
f 218/74/24 234/147/24 233/161/2
l 169 170
l 171 172
l 173 174
l 179 180
l 177 178
l 175 176
